The Voice - Australia S01 E12 - pKcMvA

Live Show Final, Part 3

Format                                   : AVI
Format/Info                              : Audio Video Interleave
File size                                : 727 MiB
Duration                                 : 1h 30mn
Overall bit rate                         : 1 127 Kbps

Video
Format                                   : MPEG-4 Visual
Format profile                           : Advanced Simple@L5
Format settings, BVOP                    : 2
Format settings, QPel                    : No
Format settings, GMC                     : No warppoints
Format settings, Matrix                  : Default (H.263)
Muxing mode                              : Packed bitstream
Codec ID                                 : XVID
Codec ID/Hint                            : XviD
Duration                                 : 1h 30mn
Bit rate                                 : 925 Kbps
Width                                    : 624 pixels
Height                                   : 352 pixels
Display aspect ratio                     : 16:9
Frame rate                               : 25.000 fps
Color space                              : YUV
Chroma subsampling                       : 4:2:0
Bit depth                                : 8 bits
Scan type                                : Progressive
Bits/(Pixel*Frame)                       : 0.168
Stream size                              : 597 MiB (82%)
Writing library                          : XviD 64

Audio
Format                                   : MPEG Audio
Format version                           : Version 1
Format profile                           : Layer 3
Codec ID                                 : 55
Codec ID/Hint                            : MP3
Duration                                 : 1h 30mn
Bit rate mode                            : Constant
Bit rate                                 : 192 Kbps
Channel(s)                               : 2 channels
Sampling rate                            : 44.1 KHz
Stream size                              : 124 MiB (17%)
Alignment                                : Split accross interleaves
Interleave, duration                     : 40 ms (1.00 video frame)